#!OML:ASF I:\Random Stuff\random\construction\7_22_03\Session 2\subj1.ASF
:FULLY-SPECIFIED
:DEGREES
1269
root -11.8437 17.7433 -2.92579 -443.636 89.475 -447.586
lowerback 3.79131 0.314179 -4.00644
upperback 1.40567 0.295708 0.316523
thorax -0.701656 0.147917 2.55987
lowerneck -16.6659 -8.50683 -8.2572
upperneck 32.3064 -11.1686 5.82835
head 14.8267 -4.75434 1.86374
rclavicle 1.98785e-015 -1.59028e-015
rhumerus -39.2401 8.69874 -82.9072
rradius 26.7053
rwrist 7.95624
rhand -4.52662 18.4342
rfingers 7.12502
rthumb 21.2482 -10.4211
lclavicle 1.98785e-015 -1.59028e-015
lhumerus -32.2007 -13.2233 90.4819
lradius 29.4969
lwrist 15.7622
lhand -17.9267 55.0403
lfingers 7.12502
lthumb 8.34111 84.8556
rfemur -16.6061 -3.56028 16.6974
rtibia 40.3779
rfoot -13.3927 -2.67493
rtoes -3.18722
lfemur -13.0248 -5.75308 -20.6205
ltibia 18.3647
lfoot -9.55479 10.3435
ltoes -26.8748
1270
root -11.8848 17.7521 -2.89003 -414.866 89.4702 -418.598
lowerback 3.54792 0.393315 -4.0077
upperback 1.30638 0.407582 0.309169
thorax -0.675956 0.203878 2.54895
lowerneck -16.5441 -8.49202 -8.37578
upperneck 31.9176 -11.1277 5.87138
head 14.6297 -4.76236 1.90808
rclavicle -2.33572e-015 9.34288e-015
rhumerus -39.5193 7.24332 -82.2226
rradius 25.3106
rwrist 9.88199
rhand -4.69968 19.3666
rfingers 7.12502
rthumb 21.0819 -9.50732
lclavicle -2.33572e-015 9.34288e-015
lhumerus -32.4977 -12.7578 90.4618
lradius 30.3675
lwrist 16.6619
lhand -18.2878 55.0648
lfingers 7.12502
lthumb 7.99255 84.8937
rfemur -15.2775 -3.75423 16.1805
rtibia 41.4373
rfoot -13.251 -2.40369
rtoes -4.00385
lfemur -12.5605 -5.65658 -20.5595
ltibia 17.6567
lfoot -9.13327 10.4335
ltoes -26.9898
1271
root -11.9325 17.7623 -2.84271 -402.159 89.4005 -405.711
lowerback 3.34734 0.426984 -4.0737
upperback 1.21894 0.45614 0.385864
thorax -0.658299 0.228079 2.66383
lowerneck -16.5022 -8.45537 -8.56766
upperneck 31.5355 -11.0592 6.00637
head 14.4659 -4.75237 2.0041
rclavicle 1.44119e-015 -2.38542e-015
rhumerus -39.7744 5.90085 -81.4604
rradius 24.2336
rwrist 11.5898
rhand -3.92961 18.7189
rfingers 7.12502
rthumb 21.8215 -10.0708
lclavicle 1.44119e-015 -2.38542e-015
lhumerus -32.6286 -12.0647 90.4202
lradius 31.1037
lwrist 17.289
lhand -18.3951 54.9042
lfingers 7.12502
lthumb 7.88904 84.737
rfemur -13.8749 -3.8855 15.7695
rtibia 42.0925
rfoot -13.1919 -2.47955
rtoes -3.89423
lfemur -12.2164 -5.61022 -20.3969
ltibia 17.0281
lfoot -8.70885 10.4314
ltoes -26.9812
1272
root -11.9863 17.7712 -2.7871 -398.295 89.3673 -401.721
lowerback 3.15726 0.470416 -4.10151
upperback 1.13417 0.518697 0.437424
thorax -0.644576 0.259569 2.73099
lowerneck -16.5907 -8.4123 -8.5612
upperneck 31.2666 -10.9987 6.02642
head 14.3595 -4.73062 2.01586
rclavicle 2.43511e-015 2.5842e-015
rhumerus -39.9703 4.43847 -80.6724
rradius 23.3967
rwrist 12.7084
rhand -2.84457 17.9488
rfingers 7.12502
rthumb 22.8631 -10.7159
lclavicle 2.43511e-015 2.5842e-015
lhumerus -32.608 -11.534 90.3658
lradius 31.6984
lwrist 17.8887
lhand -18.5028 54.8385
lfingers 7.12502
lthumb 7.78509 84.6752
rfemur -12.4158 -3.97485 15.4418
rtibia 42.2822
rfoot -13.1217 -2.67517
rtoes -3.66936
lfemur -12.0135 -5.65041 -20.1756
ltibia 16.509
lfoot -8.28591 10.4024
ltoes -26.9233
1273
root -12.0475 17.7758 -2.72728 -397.737 89.3483 -401.005
lowerback 3.12147 0.545616 -4.00064
upperback 1.01846 0.619655 0.426791
thorax -0.750363 0.313479 2.65919
lowerneck -16.6256 -8.36045 -8.37099
upperneck 30.9892 -10.9474 5.93743
head 14.2167 -4.70668 1.95397
rclavicle -4.72114e-016 1.0138e-014
rhumerus -40.1571 2.60681 -79.7488
rradius 22.6262
rwrist 13.4238
rhand -5.34652 20.0846
rfingers 7.12502
rthumb 20.4604 -8.8574
lclavicle -4.72114e-016 1.0138e-014
lhumerus -32.7783 -11.4915 90.3883
lradius 32.5234
lwrist 18.935
lhand -18.884 55.2202
lfingers 7.12502
lthumb 7.41708 85.0702
rfemur -10.8153 -3.99836 15.1892
rtibia 41.964
rfoot -12.919 -2.88195
rtoes -4.49382
lfemur -11.8877 -5.70154 -19.9229
ltibia 16.166
lfoot -7.98468 10.4146
ltoes -26.4892
1274
root -12.1145 17.775 -2.66206 -397.775 89.2791 -400.857
lowerback 3.21679 0.580138 -3.91345
upperback 0.9192 0.661867 0.488053
thorax -0.908799 0.338803 2.6703
lowerneck -16.7996 -8.33928 -8.45695
upperneck 31.0723 -10.9141 6.02512
head 14.302 -4.684 2.00453
rclavicle -7.20594e-016 -4.77083e-015
rhumerus -40.1945 0.877976 -78.7486
rradius 21.8248
rwrist 13.971
rhand -5.52913 19.0353
rfingers 7.12502
rthumb 20.285 -9.92537
lclavicle -7.20594e-016 -4.77083e-015
lhumerus -32.9884 -11.2974 90.4022
lradius 33.4238
lwrist 19.8032
lhand -18.9085 55.0525
lfingers 7.12502
lthumb 7.39345 84.9033
rfemur -9.09594 -3.87702 15.0503
rtibia 41.1167
rfoot -12.6329 -3.15769
rtoes -7.06586
lfemur -11.8598 -5.73133 -19.6112
ltibia 16.0436
lfoot -7.84938 10.5047
ltoes -25.7207
1275
root -12.1886 17.7695 -2.59296 -400.021 89.1897 -402.986
lowerback 3.27773 0.594741 -3.78051
upperback 0.88162 0.683011 0.584364
thorax -0.982872 0.351049 2.69317
lowerneck -17.0903 -8.25927 -8.49134
upperneck 30.9083 -10.7979 6.1065
head 14.2902 -4.62753 2.05255
rclavicle -3.926e-015 -3.97569e-016
rhumerus -40.0681 -0.615056 -77.8689
rradius 21.3324
rwrist 14.479
rhand -6.58892 19.5654
rfingers 7.12502
rthumb 19.2661 -9.50024
lclavicle -3.926e-015 -3.97569e-016
lhumerus -32.9787 -11.0308 90.3784
lradius 34.1976
lwrist 20.3415
lhand -18.8271 55.0882
lfingers 7.12502
lthumb 7.47202 84.9362
rfemur -7.39149 -3.61596 15.0355
rtibia 39.7367
rfoot -12.2305 -3.54482
rtoes -8.46104
lfemur -12.0502 -5.70967 -19.2425
ltibia 16.1362
lfoot -7.7009 10.545
ltoes -25.8386
1276
root -12.2711 17.759 -2.51949 -400.485 89.1234 -403.44
lowerback 3.28225 0.637008 -3.58586
upperback 0.82154 0.744294 0.613955
thorax -1.04982 0.383207 2.6112
lowerneck -17.3138 -8.25416 -8.41321
upperneck 30.8706 -10.8049 6.1037
head 14.317 -4.61856 2.02878
rclavicle 2.02512e-015 -4.67144e-015
rhumerus -40.0142 -1.71275 -77.3372
rradius 21.2455
rwrist 14.4926
rhand -9.06084 20.3289
rfingers 7.12502
rthumb 16.8879 -8.95681
lclavicle 2.02512e-015 -4.67144e-015
lhumerus -32.9267 -11.0794 90.3387
lradius 34.8407
lwrist 20.6749
lhand -18.8043 55.0114
lfingers 7.12502
lthumb 7.49408 84.8587
rfemur -5.74823 -3.22079 15.0868
rtibia 37.8311
rfoot -11.6407 -4.01523
rtoes -8.16133
lfemur -12.5239 -5.63352 -18.8822
ltibia 16.4795
lfoot -7.53561 10.5349
ltoes -26.564
1277
root -12.3607 17.7463 -2.4396 -395.991 89.0559 -398.982
lowerback 3.25795 0.694266 -3.44083
upperback 0.752417 0.824562 0.615474
thorax -1.11111 0.424749 2.52756
lowerneck -17.5002 -8.20815 -8.33344
upperneck 30.7781 -10.7505 6.09647
head 14.3048 -4.58635 2.01545
rclavicle -1.9133e-015 1.02374e-014
rhumerus -39.9341 -2.26546 -77.1666
rradius 21.4183
rwrist 13.8375
rhand -7.04721 17.6085
rfingers 7.12502
rthumb 18.8254 -11.5006
lclavicle -1.9133e-015 1.02374e-014
lhumerus -32.8581 -11.2659 90.3194
lradius 35.4211
lwrist 20.9098
lhand -18.9239 54.9455
lfingers 7.12502
lthumb 7.37861 84.7968
rfemur -4.12245 -2.60688 15.1809
rtibia 35.4233
rfoot -10.7768 -4.45269
rtoes -7.24278
lfemur -13.1753 -5.6341 -18.5234
ltibia 17.0226
lfoot -7.52621 10.595
ltoes -26.2212
1278
root -12.4578 17.7313 -2.35077 -394.782 88.8889 -397.882
lowerback 3.18025 0.759159 -3.21811
upperback 0.69563 0.920032 0.644753
thorax -1.12968 0.472643 2.42886
lowerneck -17.5398 -8.13786 -8.27088
upperneck 30.4446 -10.6694 6.12823
head 14.1555 -4.55036 2.02782
rclavicle 1.38404e-014 3.77691e-015
rhumerus -39.798 -2.61473 -77.1818
rradius 21.9254
rwrist 13.0397
rhand -7.89185 17.8388
rfingers 7.12502
rthumb 18.0129 -11.3471
lclavicle 1.38404e-014 3.77691e-015
lhumerus -32.7039 -11.4791 90.2927
lradius 35.9565
lwrist 20.9844
lhand -19.0855 55.0304
lfingers 7.12502
lthumb 7.22257 84.8871
rfemur -2.59109 -1.65087 15.5246
rtibia 32.5788
rfoot -9.84439 -5.07691
rtoes -7.71467
lfemur -13.9969 -5.73267 -17.9701
ltibia 17.6722
lfoot -7.61833 10.7173
ltoes -25.297
1279
root -12.5628 17.7126 -2.25334 -393.623 88.679 -396.94
lowerback 3.10897 0.841241 -2.96819
upperback 0.583928 1.03774 0.665181
thorax -1.20833 0.532882 2.30441
lowerneck -17.6549 -8.03076 -8.18129
upperneck 30.3331 -10.5315 6.12718
head 14.1117 -4.48203 2.03389
rclavicle 1.22377e-014 8.74653e-015
rhumerus -39.7197 -2.61797 -77.446
rradius 22.7635
rwrist 12.0917
rhand -8.33035 17.1808
rfingers 7.12502
rthumb 17.591 -12.0434
lclavicle 1.22377e-014 8.74653e-015
lhumerus -32.5835 -11.8245 90.2645
lradius 36.5334
lwrist 21.077
lhand -19.3289 55.4422
lfingers 7.12502
lthumb 6.98764 85.3069
rfemur -1.21453 -0.396095 16.0307
rtibia 29.3951
rfoot -9.64964 -6.04479
rtoes -11.796
lfemur -14.9875 -5.76821 -17.3469
ltibia 18.3618
lfoot -7.64114 10.849
ltoes -25.2078
1280
root -12.6765 17.6877 -2.15274 -386.758 88.5305 -390.361
lowerback 3.04997 0.934905 -2.81139
upperback 0.455384 1.16631 0.617888
thorax -1.31121 0.598985 2.16185
lowerneck -17.6286 -7.94626 -8.1541
upperneck 30.195 -10.4292 6.17754
head 14.0374 -4.43233 2.06853
rclavicle -1.24862e-014 2.78299e-015
rhumerus -39.5621 -2.02064 -78.0531
rradius 23.7818
rwrist 10.9143
rhand -10.8854 19.6009
rfingers 7.12502
rthumb 15.1309 -9.82596
lclavicle -1.24862e-014 2.78299e-015
lhumerus -32.3992 -12.0892 90.1557
lradius 37.0151
lwrist 21.0297
lhand -19.4928 55.688
lfingers 7.12502
lthumb 6.82947 85.5578
rfemur 0.0265857 0.841016 16.402
rtibia 26.0511
rfoot -10.4371 -7.07987
rtoes -17.5137
lfemur -16.035 -5.68238 -16.9081
ltibia 19.0046
lfoot -7.53031 10.974
ltoes -25.8313
1281
root -12.7987 17.6629 -2.04886 -377.94 88.3699 -381.867
lowerback 3.00916 1.02075 -2.67708
upperback 0.334419 1.28282 0.526887
thorax -1.41436 0.658691 1.98727
lowerneck -17.6215 -7.84259 -8.01889
upperneck 29.9186 -10.274 6.05728
head 13.8828 -4.3759 2.02404
rclavicle 2.01891e-015 2.48481e-015
rhumerus -39.3152 -1.10545 -78.8533
rradius 24.9307
rwrist 9.94301
rhand -9.61244 17.1749
rfingers 7.12502
rthumb 16.3568 -12.1554
lclavicle 2.01891e-015 2.48481e-015
lhumerus -32.1362 -12.0923 89.8855
lradius 37.3157
lwrist 20.5002
lhand -19.17 55.3087
lfingers 7.12502
lthumb 7.14103 85.1682
rfemur 1.16866 1.81446 16.689
rtibia 22.6813
rfoot -11.3315 -7.95
rtoes -21.5661
lfemur -17.0494 -5.58596 -16.5464
ltibia 19.4729
lfoot -7.31527 11.113
ltoes -26.6413
1282
root -12.9307 17.6432 -1.9398 -366.419 88.159 -370.647
lowerback 3.13076 1.11611 -2.65559
upperback 0.19333 1.40265 0.379667
thorax -1.62972 0.722029 1.81461
lowerneck -18.0643 -7.74875 -7.85567
upperneck 30.4531 -10.0982 5.8188
head 14.1687 -4.28892 1.92724
rclavicle 1.11568e-014 -2.98177e-016
rhumerus -39.0587 -0.0409172 -79.7473
rradius 26.2442
rwrist 9.06158
rhand -10.0217 17.4608
rfingers 7.12502
rthumb 15.9627 -11.9015
lclavicle 1.11568e-014 -2.98177e-016
lhumerus -32.0178 -12.2836 89.662
lradius 37.8112
lwrist 20.5593
lhand -19.4055 55.3616
lfingers 7.12502
lthumb 6.91376 85.2287
rfemur 2.21077 2.42299 16.8509
rtibia 19.4178
rfoot -11.8371 -8.67493
rtoes -23.5857
lfemur -18.0157 -5.89076 -16.2407
ltibia 19.8803
lfoot -7.15253 11.6006
ltoes -26.5189
